<svg xmlns="http://www.w3.org/2000/svg" width="24" height="24" viewBox="0 0 24 24" fill="currentColor">
  <path d="M12,2c-4.4,0-8,3.6-8,8s3.6,8,8,8s8-3.6,8-8S16.4,2,12,2z M12,5.5c1.4,0,2.5,1.1,2.5,2.5S13.4,10.5,12,10.5S9.5,9.4,9.5,8S10.6,5.5,12,5.5z M12,16.5c-1.9,0-3.6-0.8-4.9-2c0.2-1.3,2.1-2,3-2.2c0.7,0.5,1.2,0.7,1.9,0.7c0.7,0,1.2-0.2,1.9-0.7c0.9,0.2,2.8,0.9,3,2.2C15.6,15.7,13.9,16.5,12,16.5z M15.8,12.7c-0.9-0.6-2.5-1-2.5-1c-0.2,0.1-0.8,0.4-1.3,0.4c-0.5,0-1-0.3-1.3-0.4c0,0-1.6,0.4-2.5,1C7.5,12,7.1,10.4,7.1,9.5c0-2.7,2.2-4.9,4.9-4.9s4.9,2.2,4.9,4.9C16.9,10.4,16.5,12,15.8,12.7z"/>
</svg> 