<svg width="20" height="20" viewBox="0 0 20 20" fill="none" xmlns="http://www.w3.org/2000/svg">
<path d="M10 18C12.1217 18 14.1566 17.1571 15.6569 15.6569C17.1571 14.1566 18 12.1217 18 10C18 7.87827 17.1571 5.84344 15.6569 4.34315C14.1566 2.84285 12.1217 2 10 2C7.87827 2 5.84344 2.84285 4.34315 4.34315C2.84285 5.84344 2 7.87827 2 10C2 12.1217 2.84285 14.1566 4.34315 15.6569C5.84344 17.1571 7.87827 18 10 18ZM10 20C4.477 20 0 15.523 0 10C0 4.477 4.477 0 10 0C15.523 0 20 4.477 20 10C20 15.523 15.523 20 10 20Z" fill="black"/>
<path d="M13.644 9.404C13.656 7.912 12.425 6.544 10.9 6.355L10.8 6.34C10.7235 6.32488 10.6459 6.31619 10.568 6.314C10.255 6.314 10.172 6.54 10.15 6.675C10.1375 6.73106 10.1364 6.78906 10.1467 6.84557C10.157 6.90207 10.1785 6.95594 10.21 7.004C10.314 7.149 10.496 7.174 10.642 7.196C10.686 7.20133 10.725 7.208 10.759 7.216C12.13 7.531 12.592 8.02799 12.817 9.43099C12.8223 9.46633 12.8257 9.507 12.827 9.553C12.837 9.72 12.858 10.069 13.222 10.069C13.252 10.069 13.284 10.0663 13.318 10.061C13.657 10.008 13.646 9.689 13.641 9.536C13.6389 9.49902 13.6389 9.46197 13.641 9.425L13.643 9.40499L13.644 9.404Z" fill="black"/>
<path d="M10.48 5.80701C10.52 5.81001 10.56 5.81301 10.591 5.81801C12.841 6.17601 13.877 7.27601 14.164 9.61801C14.168 9.65868 14.17 9.70535 14.17 9.75801C14.173 9.94101 14.179 10.321 14.575 10.329H14.587C14.6414 10.332 14.6958 10.3233 14.7465 10.3035C14.7972 10.2836 14.8431 10.2531 14.881 10.214C15.004 10.081 14.996 9.88401 14.989 9.72401C14.9863 9.68535 14.9853 9.64968 14.986 9.61701C15.014 7.22201 13.006 5.05001 10.688 4.97001L10.66 4.97101L10.633 4.97301C10.609 4.97301 10.5817 4.97168 10.551 4.96901L10.431 4.96301C10.062 4.96301 9.99201 5.23301 9.98301 5.39501C9.96301 5.76801 10.312 5.79501 10.48 5.80701ZM14.055 12.644L13.912 12.529C13.666 12.325 13.404 12.137 13.152 11.955L12.994 11.841C12.67 11.607 12.379 11.492 12.104 11.492C11.734 11.492 11.411 11.704 11.144 12.121C11.0273 12.3043 10.8813 12.3957 10.706 12.395C10.5831 12.3906 10.4627 12.3595 10.353 12.304C9.308 11.814 8.56101 11.064 8.13401 10.074C7.92801 9.59401 7.99401 9.28201 8.35801 9.02701C8.56401 8.88301 8.94801 8.61401 8.92101 8.09901C8.89101 7.51401 7.64001 5.75401 7.11301 5.55401C6.88813 5.46953 6.64036 5.46882 6.41501 5.55201C5.81001 5.76201 5.37501 6.13201 5.15801 6.61901C4.94801 7.09101 4.95801 7.64401 5.18601 8.22001C5.84301 9.88601 6.76601 11.338 7.93201 12.536C9.07201 13.709 10.474 14.669 12.098 15.391C12.244 15.456 12.398 15.491 12.51 15.517L12.605 15.541C12.6181 15.5444 12.6315 15.5464 12.645 15.547H12.658C13.422 15.547 14.339 14.827 14.621 14.005C14.868 13.285 14.417 12.93 14.055 12.645V12.644ZM10.818 7.71001C10.688 7.71301 10.415 7.72001 10.319 8.00601C10.275 8.14068 10.2803 8.25568 10.335 8.35101C10.416 8.49101 10.572 8.53401 10.713 8.55701C11.225 8.64201 11.489 8.93501 11.541 9.47701C11.566 9.73101 11.731 9.90701 11.943 9.90701L11.991 9.90501C12.2463 9.87235 12.3687 9.68068 12.358 9.33001C12.362 8.96401 12.177 8.55001 11.862 8.22001C11.546 7.88801 11.165 7.70101 10.818 7.71001Z" fill="black"/>
</svg>
