<svg xmlns="http://www.w3.org/2000/svg" width="24" height="24" viewBox="0 0 24 24" fill="currentColor">
  <path d="M11.4,2.5C8.5,2.8,5.5,4.2,4,7.1c-0.8,1.5-1,3.3-1,4.9c0,2.6,0.9,4.9,2.5,6.7c0.8,1,1.9,1.8,2.9,2.5
  c0.1,0.1,0.3,0.2,0.3,0.3c0.1,0.2,0.1,0.4,0.1,0.7c0,1,0,2.1,0,3.1c0,0.3,0.1,0.5,0.4,0.5c0.2,0,0.3-0.2,0.4-0.3
  c0.6-0.8,1.2-1.6,1.8-2.3c0.3-0.4,0.6-0.4,1-0.3c1.6,0.5,3.2,0.7,4.9,0.5c1.9-0.2,3.5-0.8,4.5-2.5c0.9-1.4,1.3-3,1.4-4.6
  c0.1-1.8,0.1-3.7-0.6-5.4C22.2,9.7,21.2,8.5,20,7.7c-1.2-0.8-2.5-1.3-3.9-1.5C14.3,2.5,13.1,2.3,11.4,2.5z M16.7,6.8
  c0.1,0,0.3,0.1,0.3,0.2c0.1,0.2,0.2,0.4,0.3,0.6c0.4,1.1,0.5,2.2,0.5,3.4c0,0.5-0.2,0.7-0.6,0.6c-0.3-0.1-0.4-0.2-0.4-0.6
  c0-0.6,0-1.1-0.1-1.7c-0.1-0.8-0.4-1.5-0.7-2.1c-0.1-0.2-0.2-0.5,0-0.6C16.2,6.7,16.5,6.7,16.7,6.8z M10.3,7.5
  c0.3,0,0.4,0.2,0.5,0.5c0.1,0.5-0.1,0.9-0.5,1.3c-0.5,0.5-0.7,1.1-0.9,1.8c-0.1,0.9,0,1.8,0.4,2.6c0.3,0.6,0.6,1.1,1.1,1.5
  c0.8,0.6,1.6,1,2.5,1.1c0.6,0,1.1-0.1,1.6-0.3c0.3-0.1,0.6-0.3,0.9-0.1c0.3,0.2,0.3,0.6,0.3,0.9c0,0.4-0.3,0.6-0.6,0.8
  c-0.4,0.2-0.9,0.3-1.4,0.3c-1.2,0-2.2-0.4-3.2-1c-0.9-0.6-1.6-1.4-2-2.4c-0.6-1.3-0.6-2.6-0.2-4c0.3-1,0.8-1.9,1.5-2.6
  C9.7,7.6,10,7.5,10.3,7.5z M16.8,8.7c0.1,0,0.2,0.1,0.3,0.1c0.2,0.1,0.3,0.4,0.2,0.6c-0.1,0.3-0.2,0.6-0.3,0.8
  c-0.6,1-1.2,1.7-2.3,2.2c-0.3,0.1-0.5,0.2-0.8,0.1c-0.3-0.1-0.4-0.3-0.3-0.7c0-0.2,0.3-0.3,0.4-0.4c0.7-0.3,1.3-0.7,1.7-1.4
  c0.2-0.3,0.3-0.6,0.4-1C16.3,8.7,16.6,8.7,16.8,8.7z M13.1,9.9c0.3,0,0.5,0.2,0.5,0.5c0,0.3-0.3,0.5-0.6,0.5
  c-0.2,0-0.4-0.2-0.5-0.4c0-0.2,0.1-0.4,0.2-0.5C12.8,9.9,12.9,9.8,13.1,9.9z"/>
</svg> 