<svg width="16" height="16" viewBox="0 0 16 16" fill="none" xmlns="http://www.w3.org/2000/svg">
<path d="M10.4555 0H5.544C1.062 0 -0.00050354 1.0625 -0.00050354 5.5445V10.456C-0.00050354 14.938 1.062 16.0005 5.544 16.0005H10.4555C14.9375 16.0005 16 14.938 16 10.456V5.5445C16 1.0625 14.927 0 10.4555 0ZM12.9165 11.414H11.755C11.315 11.414 11.1795 11.065 10.388 10.263C9.7005 9.5965 9.396 9.508 9.2265 9.508C8.987 9.508 8.919 9.5755 8.919 9.904V10.9535C8.919 11.235 8.8305 11.404 8.0855 11.404C6.8535 11.404 5.4865 10.659 4.528 9.271C3.0825 7.237 2.687 5.7135 2.687 5.3985C2.687 5.229 2.7545 5.0705 3.08 5.0705H4.244C4.5385 5.0705 4.6505 5.206 4.765 5.521C5.3405 7.1825 6.299 8.638 6.6945 8.638C6.8405 8.638 6.908 8.5705 6.908 8.198V6.482C6.8635 5.6905 6.447 5.6225 6.447 5.3415C6.447 5.206 6.559 5.0705 6.7385 5.0705H8.569C8.8165 5.0705 8.9075 5.206 8.9075 5.4975V7.8125C8.9075 8.0625 9.0195 8.151 9.087 8.151C9.233 8.151 9.358 8.0625 9.6285 7.7915C10.4645 6.854 11.0635 5.4085 11.0635 5.4085C11.1415 5.239 11.277 5.0805 11.5715 5.0805H12.7355C13.0845 5.0805 13.1625 5.26 13.0845 5.51C12.9385 6.187 11.514 8.1975 11.514 8.1975C11.3915 8.4005 11.3445 8.489 11.514 8.7155C11.639 8.885 12.0455 9.2365 12.316 9.5515C12.8135 10.1165 13.196 10.5905 13.298 10.9185C13.4125 11.244 13.2435 11.4135 12.915 11.4135L12.9165 11.414Z" fill="#0095FF"/>
</svg>
