<svg xmlns="http://www.w3.org/2000/svg" width="24" height="24" viewBox="0 0 24 24" fill="none" stroke="currentColor" stroke-width="2" stroke-linecap="round" stroke-linejoin="round">
  <path d="M17.498 14.382c-.301-.15-1.767-.867-2.04-.966-.273-.101-.473-.15-.673.15-.2.301-.767.966-.94 1.164-.173.199-.347.223-.646.075-.3-.15-1.267-.465-2.414-1.485-.893-.795-1.494-1.78-1.67-2.079-.174-.3-.018-.46.13-.61.136-.135.301-.345.451-.523.146-.181.194-.301.292-.498.1-.2.049-.374-.025-.524-.075-.15-.672-1.62-.922-2.206-.242-.579-.487-.501-.672-.51-.172-.01-.371-.01-.571-.01-.2 0-.523.074-.797.359-.273.285-1.045 1.02-1.045 2.475s1.07 2.865 1.219 3.075c.149.21 2.1 3.22 5.114 4.515.714.31 1.27.467 1.705.605.717.227 1.37.195 1.883.118.575-.085 1.773-.713 2.024-1.403.251-.694.251-1.286.175-1.41-.074-.127-.273-.196-.574-.345z"/>
  <path d="M12 2C6.477 2 2 6.477 2 12c0 1.821.487 3.53 1.338 5.001L2.5 22l5.108-1.686c1.424.779 3.042 1.22 4.76 1.22 5.522 0 10-4.478 10-10s-4.477-10-10-10zm0 18.142c-1.533 0-2.967-.436-4.183-1.188l-.301-.18-3.108 1.024.98-3.095-.202-.303c-.81-1.285-1.244-2.784-1.244-4.396 0-4.514 3.682-8.196 8.196-8.196 4.515 0 8.197 3.682 8.197 8.196s-3.683 8.138-8.334 8.138z" fill="currentColor"/>
</svg> 