<svg width="20" height="20" viewBox="0 0 20 20" fill="none" xmlns="http://www.w3.org/2000/svg">
<path d="M17.05 2.90999C16.1331 1.9841 15.041 1.24996 13.8375 0.750355C12.634 0.250751 11.3431 -0.0043242 10.04 -7.14002e-06C4.58 -7.14002e-06 0.130003 4.44999 0.130003 9.90999C0.130003 11.66 0.590003 13.36 1.45 14.86L0.0500031 20L5.3 18.62C6.75 19.41 8.38 19.83 10.04 19.83C15.5 19.83 19.95 15.38 19.95 9.91999C19.95 7.26999 18.92 4.77999 17.05 2.90999ZM10.04 18.15C8.56 18.15 7.11 17.75 5.84 17L5.54 16.82L2.42 17.64L3.25 14.6L3.05 14.29C2.22755 12.9771 1.79093 11.4593 1.79 9.90999C1.79 5.36999 5.49 1.66999 10.03 1.66999C12.23 1.66999 14.3 2.52999 15.85 4.08999C16.6176 4.85386 17.2259 5.76254 17.6396 6.76332C18.0533 7.76411 18.2642 8.83708 18.26 9.91999C18.28 14.46 14.58 18.15 10.04 18.15ZM14.56 11.99C14.31 11.87 13.09 11.27 12.87 11.18C12.64 11.1 12.48 11.06 12.31 11.3C12.14 11.55 11.67 12.11 11.53 12.27C11.39 12.44 11.24 12.46 10.99 12.33C10.74 12.21 9.94 11.94 9 11.1C8.26 10.44 7.77 9.62999 7.62 9.37999C7.48 9.12999 7.6 8.99999 7.73 8.86999C7.84 8.75999 7.98 8.57999 8.1 8.43999C8.22 8.29999 8.27 8.18999 8.35 8.02999C8.43 7.85999 8.39 7.71999 8.33 7.59999C8.27 7.47999 7.77 6.25999 7.57 5.75999C7.37 5.27999 7.16 5.33999 7.01 5.32999H6.53C6.36 5.32999 6.1 5.38999 5.87 5.63999C5.65 5.88999 5.01 6.48999 5.01 7.70999C5.01 8.92999 5.9 10.11 6.02 10.27C6.14 10.44 7.77 12.94 10.25 14.01C10.84 14.27 11.3 14.42 11.66 14.53C12.25 14.72 12.79 14.69 13.22 14.63C13.7 14.56 14.69 14.03 14.89 13.45C15.1 12.87 15.1 12.38 15.03 12.27C14.96 12.16 14.81 12.11 14.56 11.99Z" fill="black"/>
</svg>
